<svg width="215" height="234" viewBox="0 0 215 234" fill="none" xmlns="http://www.w3.org/2000/svg">
<circle opacity="0.1" cx="88.0003" cy="222.4" r="11.2" fill="#D9D9D9"/>
<circle opacity="0.1" cx="89.6004" cy="187.2" r="11.2" fill="#D9D9D9"/>
<circle opacity="0.1" cx="51.2" cy="187.2" r="11.2" fill="#D9D9D9"/>
<circle opacity="0.1" cx="12.8001" cy="187.2" r="11.2" fill="#D9D9D9"/>
<circle opacity="0.1" cx="11.2" cy="152" r="11.2" fill="#D9D9D9"/>
<circle cx="88.0003" cy="152" r="11.2" fill="#F7C8FF"/>
<circle opacity="0.1" cx="88.0003" cy="116.8" r="11.2" fill="#D9D9D9"/>
<circle opacity="0.1" cx="88.0003" cy="81.5999" r="11.2" fill="#D9D9D9"/>
<circle opacity="0.1" cx="164.8" cy="81.5999" r="11.2" fill="#D9D9D9"/>
<circle opacity="0.1" cx="164.8" cy="46.3997" r="11.2" fill="#D9D9D9"/>
<circle opacity="0.1" cx="126.4" cy="46.3997" r="11.2" fill="#D9D9D9"/>
<circle opacity="0.1" cx="88.0003" cy="46.3997" r="11.2" fill="#D9D9D9"/>
<circle opacity="0.1" cx="49.6004" cy="46.3997" r="11.2" fill="#D9D9D9"/>
<circle opacity="0.1" cx="49.6004" cy="11.2" r="11.2" fill="#D9D9D9"/>
<circle opacity="0.1" cx="88.0003" cy="11.2" r="11.2" fill="#D9D9D9"/>
<circle opacity="0.1" cx="164.8" cy="11.2" r="11.2" fill="#D9D9D9"/>
<circle opacity="0.1" cx="11.2" cy="46.3997" r="11.2" fill="#D9D9D9"/>
<circle cx="126.4" cy="116.8" r="11.2" fill="#F7C8FF"/>
<circle opacity="0.1" cx="164.8" cy="116.8" r="11.2" fill="#D9D9D9"/>
<circle opacity="0.1" cx="203.2" cy="116.8" r="11.2" fill="#D9D9D9"/>
<circle opacity="0.1" cx="49.6004" cy="116.8" r="11.2" fill="#D9D9D9"/>
<circle cx="126.4" cy="152" r="11.2" fill="#F7C8FF"/>
<circle cx="164.8" cy="152" r="11.2" fill="#F7C8FF"/>
<circle opacity="0.1" cx="203.2" cy="152" r="11.2" fill="#D9D9D9"/>
<circle cx="126.4" cy="187.2" r="11.2" fill="#F7C8FF"/>
<circle opacity="0.1" cx="164.8" cy="187.2" r="11.2" fill="#D9D9D9"/>
<circle opacity="0.1" cx="164.8" cy="222.4" r="11.2" fill="#D9D9D9"/>
<circle opacity="0.1" cx="203.2" cy="187.2" r="11.2" fill="#D9D9D9"/>
</svg>
