<svg width="151" height="164" viewBox="0 0 151 164" fill="none" xmlns="http://www.w3.org/2000/svg">
<ellipse opacity="0.1" cx="61.631" cy="155.757" rx="7.84387" ry="7.84383" fill="#D9D9D9"/>
<ellipse opacity="0.1" cx="62.7516" cy="131.105" rx="7.84387" ry="7.84383" fill="#D9D9D9"/>
<ellipse opacity="0.1" cx="35.8571" cy="131.105" rx="7.84387" ry="7.84383" fill="#D9D9D9"/>
<ellipse opacity="0.1" cx="8.96546" cy="131.105" rx="7.84387" ry="7.84383" fill="#D9D9D9"/>
<ellipse opacity="0.1" cx="7.84387" cy="106.452" rx="7.84387" ry="7.84383" fill="#D9D9D9"/>
<ellipse cx="61.631" cy="106.452" rx="7.84387" ry="7.84383" fill="#F7C8FF"/>
<ellipse opacity="0.1" cx="61.631" cy="81.7999" rx="7.84387" ry="7.84383" fill="#D9D9D9"/>
<ellipse opacity="0.1" cx="61.631" cy="57.1475" rx="7.84387" ry="7.84383" fill="#D9D9D9"/>
<ellipse opacity="0.1" cx="115.417" cy="57.1475" rx="7.84387" ry="7.84383" fill="#D9D9D9"/>
<ellipse opacity="0.1" cx="115.417" cy="32.4962" rx="7.84387" ry="7.84383" fill="#D9D9D9"/>
<ellipse opacity="0.1" cx="88.5236" cy="32.4962" rx="7.84387" ry="7.84383" fill="#D9D9D9"/>
<ellipse opacity="0.1" cx="61.631" cy="32.4962" rx="7.84387" ry="7.84383" fill="#D9D9D9"/>
<ellipse opacity="0.1" cx="34.7369" cy="32.4962" rx="7.84387" ry="7.84383" fill="#D9D9D9"/>
<ellipse opacity="0.1" cx="34.7369" cy="7.84383" rx="7.84387" ry="7.84383" fill="#D9D9D9"/>
<ellipse opacity="0.1" cx="61.631" cy="7.84383" rx="7.84387" ry="7.84383" fill="#D9D9D9"/>
<ellipse opacity="0.1" cx="115.417" cy="7.84383" rx="7.84387" ry="7.84383" fill="#D9D9D9"/>
<ellipse opacity="0.1" cx="7.84387" cy="32.4962" rx="7.84387" ry="7.84383" fill="#D9D9D9"/>
<ellipse cx="88.5236" cy="81.7999" rx="7.84387" ry="7.84383" fill="#F7C8FF"/>
<ellipse opacity="0.1" cx="115.417" cy="81.7999" rx="7.84387" ry="7.84383" fill="#D9D9D9"/>
<ellipse opacity="0.1" cx="142.31" cy="81.7999" rx="7.84387" ry="7.84383" fill="#D9D9D9"/>
<ellipse opacity="0.1" cx="34.7369" cy="81.7999" rx="7.84387" ry="7.84383" fill="#D9D9D9"/>
<ellipse cx="88.5236" cy="106.452" rx="7.84387" ry="7.84383" fill="#F7C8FF"/>
<ellipse cx="115.417" cy="106.452" rx="7.84387" ry="7.84383" fill="#F7C8FF"/>
<ellipse opacity="0.1" cx="142.31" cy="106.452" rx="7.84387" ry="7.84383" fill="#D9D9D9"/>
<ellipse cx="88.5236" cy="131.105" rx="7.84387" ry="7.84383" fill="#F7C8FF"/>
<ellipse opacity="0.1" cx="115.417" cy="131.105" rx="7.84387" ry="7.84383" fill="#D9D9D9"/>
<ellipse opacity="0.1" cx="115.417" cy="155.757" rx="7.84387" ry="7.84383" fill="#D9D9D9"/>
<ellipse opacity="0.1" cx="142.31" cy="131.105" rx="7.84387" ry="7.84383" fill="#D9D9D9"/>
</svg>
